<?xml version="1.0" standalone="no"?><!DOCTYPE svg PUBLIC "-//W3C//DTD SVG 1.1//EN" "http://www.w3.org/Graphics/SVG/1.1/DTD/svg11.dtd"><svg t="1781479816425" class="icon" viewBox="0 0 1024 1024" version="1.1" xmlns="http://www.w3.org/2000/svg" p-id="1375" xmlns:xlink="http://www.w3.org/1999/xlink" width="200" height="200"><path d="M298.688 128v128H171.072a42.816 42.816 0 0 0-42.944 42.688L128 896c0 23.68 19.2 42.688 42.944 42.688h511.424a42.816 42.816 0 0 0 42.944-42.688v-128h128a42.688 42.688 0 0 0 42.688-42.688V128a42.688 42.688 0 0 0-42.688-42.688h-512A42.688 42.688 0 0 0 298.688 128z m426.624 128H384V170.688h426.624v512h-85.312V256z m-512 597.312l0.128-512H640v512H213.312z m193.536-112.448L256 590.08l60.352-60.352 90.496 90.56 150.848-150.912 60.352 60.352-211.2 211.2z" p-id="1376"></path></svg>