<?xml version="1.0" standalone="no"?><!DOCTYPE svg PUBLIC "-//W3C//DTD SVG 1.1//EN" "http://www.w3.org/Graphics/SVG/1.1/DTD/svg11.dtd"><svg t="1781065419994" class="icon" viewBox="0 0 1024 1024" version="1.1" xmlns="http://www.w3.org/2000/svg" p-id="4603" xmlns:xlink="http://www.w3.org/1999/xlink" width="200" height="200"><path d="M781.824 91.882667a21.333333 21.333333 0 0 1 21.333333 21.333333v106.666667h106.666667a21.333333 21.333333 0 0 1 21.333333 21.333333v21.333333a21.333333 21.333333 0 0 1-21.333333 21.333334h-106.666667v106.666666a21.333333 21.333333 0 0 1-21.333333 21.333334h-21.333333a21.333333 21.333333 0 0 1-21.333334-21.333334v-106.666666h-106.666666a21.333333 21.333333 0 0 1-21.333334-21.333334v-21.333333a21.333333 21.333333 0 0 1 21.333334-21.333333h106.666666v-106.666667a21.333333 21.333333 0 0 1 21.333334-21.333333h21.333333zM800 576a21.333333 21.333333 0 0 1 21.333333-21.333333h21.333334a21.333333 21.333333 0 0 1 21.333333 21.333333v234.666667a117.333333 117.333333 0 0 1-112.618667 117.248L746.666667 928H213.333333a117.333333 117.333333 0 0 1-117.248-112.618667L96 810.666667V277.333333a117.333333 117.333333 0 0 1 112.618667-117.248L213.333333 160h234.666667a21.333333 21.333333 0 0 1 21.333333 21.333333v21.333334a21.333333 21.333333 0 0 1-21.333333 21.333333H213.333333a53.333333 53.333333 0 0 0-53.226666 49.834667L160 277.333333v533.333334a53.333333 53.333333 0 0 0 49.834667 53.226666L213.333333 864h533.333334a53.333333 53.333333 0 0 0 53.226666-49.834667L800 810.666667V576z" fill="#000000" p-id="4604"></path><path d="M601.130667 436.565333a21.333333 21.333333 0 0 1 30.165333 0l15.082667 15.104a21.333333 21.333333 0 0 1 0 30.165334l-190.933334 190.933333a21.248 21.248 0 0 1-9.152 5.397333 21.333333 21.333333 0 0 1-21.461333-5.269333l-84.266667-84.266667a21.333333 21.333333 0 0 1 0-30.165333l15.104-15.082667a21.333333 21.333333 0 0 1 30.165334 0l54.250666 54.229334z" fill="#000000" p-id="4605"></path></svg>