<?xml version="1.0" standalone="no"?><!DOCTYPE svg PUBLIC "-//W3C//DTD SVG 1.1//EN" "http://www.w3.org/Graphics/SVG/1.1/DTD/svg11.dtd"><svg t="1782794135587" class="icon" viewBox="0 0 1246 1024" version="1.1" xmlns="http://www.w3.org/2000/svg" p-id="3855" xmlns:xlink="http://www.w3.org/1999/xlink" width="243.359375" height="200"><path d="M622.325492 961.933974H32.698243a31.033013 31.033013 0 1 0 0 62.066026H622.325492a31.033013 31.033013 0 1 0 0-62.066026z" fill="#0043DC" p-id="3856"></path><path d="M622.325492 641.140262H32.698243a31.033013 31.033013 0 1 0 0 62.066026H622.325492a31.033013 31.033013 0 1 0 0-62.066026z" fill="#0043DC" p-id="3857"></path><path d="M622.325492 320.883144H32.698243a31.033013 31.033013 0 1 0 0 62.066026H622.325492a31.033013 31.033013 0 1 0 0-62.066026z" fill="#0043DC" p-id="3858"></path><path d="M36.4544 62.066026h1179.165066a31.033013 31.033013 0 1 0 0-62.066026H36.4544a31.033013 31.033013 0 1 0 0 62.066026z" fill="#0043DC" p-id="3859"></path><path d="M1224.920426 515.130131h-140.855895v477.836856a31.033013 31.033013 0 0 1-62.066026 0V515.130131H881.679203a17.349869 17.349869 0 0 1-14.30917-28.528908l171.352315-230.914236a17.886463 17.886463 0 0 1 29.154934 0l171.352315 230.914236a17.886463 17.886463 0 0 1-14.309171 28.528908z" fill="#0043DC" p-id="3860"></path></svg>