<?xml version="1.0" standalone="no"?><!DOCTYPE svg PUBLIC "-//W3C//DTD SVG 1.1//EN" "http://www.w3.org/Graphics/SVG/1.1/DTD/svg11.dtd"><svg t="1781832624397" class="icon" viewBox="0 0 1024 1024" version="1.1" xmlns="http://www.w3.org/2000/svg" p-id="1686" xmlns:xlink="http://www.w3.org/1999/xlink" width="200" height="200"><path d="M504.035556 110.990222a7.964444 7.964444 0 0 1 7.964444 7.964445v56.035555a7.964444 7.964444 0 0 1-7.964444 7.964445H232.96v658.033777h557.966222V520.021333a7.964444 7.964444 0 0 1 7.964445-8.021333h56.035555a7.964444 7.964444 0 0 1 7.964445 7.964444v385.024a7.964444 7.964444 0 0 1-7.964445 7.964445H169.016889a7.964444 7.964444 0 0 1-7.964445-7.964445V119.011556a7.964444 7.964444 0 0 1 7.964445-7.964445h334.961778z m190.008888 461.027556a7.964444 7.964444 0 0 1 7.964445 7.964444v56.035556a7.964444 7.964444 0 0 1-7.964445 7.964444H329.955556a7.964444 7.964444 0 0 1-7.964445-7.964444v-56.035556a7.964444 7.964444 0 0 1 7.964445-7.964444h364.088888zM493.966222 380.017778a7.964444 7.964444 0 0 1 7.964445 7.964444v56.035556a7.964444 7.964444 0 0 1-7.964445 7.964444H329.955556a7.964444 7.964444 0 0 1-7.964445-7.964444V387.982222a7.964444 7.964444 0 0 1 7.964445-7.964444h164.010666z m373.76-265.955556l39.253334 39.879111a7.964444 7.964444 0 0 1 0 11.320889L621.909333 446.008889a7.964444 7.964444 0 0 1-11.320889-0.056889l-39.253333-39.879111a7.964444 7.964444 0 0 1 0-11.377778l285.070222-280.746667a7.964444 7.964444 0 0 1 11.377778 0.113778z" fill="#1D1F24" p-id="1687"></path></svg>