<?xml version="1.0" standalone="no"?><!DOCTYPE svg PUBLIC "-//W3C//DTD SVG 1.1//EN" "http://www.w3.org/Graphics/SVG/1.1/DTD/svg11.dtd"><svg t="1782794130707" class="icon" viewBox="0 0 1246 1024" version="1.1" xmlns="http://www.w3.org/2000/svg" p-id="3686" xmlns:xlink="http://www.w3.org/1999/xlink" width="243.359375" height="200"><path d="M622.319529 961.924733H32.697945a31.032715 31.032715 0 1 0 0 62.06543H622.319529a31.032715 31.032715 0 1 0 0-62.06543z" fill="#0043DC" p-id="3687"></path><path d="M622.319529 641.134103H32.697945a31.032715 31.032715 0 1 0 0 62.06543H622.319529a31.032715 31.032715 0 1 0 0-62.06543z" fill="#0043DC" p-id="3688"></path><path d="M622.319529 320.880061H32.697945a31.032715 31.032715 0 1 0 0 62.06543H622.319529a31.032715 31.032715 0 1 0 0-62.06543z" fill="#0043DC" p-id="3689"></path><path d="M36.454066 62.06543h1179.153737a31.032715 31.032715 0 1 0 0-62.06543H36.454066a31.032715 31.032715 0 1 0 0 62.06543z" fill="#0043DC" p-id="3690"></path><path d="M1224.908675 757.1267h-140.854542V279.294435a31.032715 31.032715 0 0 0-62.06543 0v477.832265H881.670749a17.349702 17.349702 0 0 0-14.309033 28.528634l171.261237 230.912018a17.886291 17.886291 0 0 0 29.154655 0l171.261236-230.912018a17.886291 17.886291 0 0 0-14.309032-28.528634z" fill="#0043DC" p-id="3691"></path></svg>