<?xml version="1.0" standalone="no"?><!DOCTYPE svg PUBLIC "-//W3C//DTD SVG 1.1//EN" "http://www.w3.org/Graphics/SVG/1.1/DTD/svg11.dtd"><svg t="1782593104610" class="icon" viewBox="0 0 1024 1024" version="1.1" xmlns="http://www.w3.org/2000/svg" p-id="1687" xmlns:xlink="http://www.w3.org/1999/xlink" width="200" height="200"><path d="M511.646236 661.152107c112.142517-6.589093 199.463987-56.487075 262.092352-149.693948a303.226201 303.226201 0 0 0-111.246912-109.519674 303.482089 303.482089 0 0 0-150.84544-39.982358 303.226201 303.226201 0 0 0-150.845439 39.982358 303.16223 303.16223 0 0 0-111.246913 109.455702c62.628365 93.270844 149.949835 143.168827 262.092352 149.75792z m0 71.136611c-140.098182-6.781008-249.937715-67.938022-329.454628-183.535016-20.406995-24.693104-20.406995-49.386208 0-74.143284A385.941703 385.941703 0 0 1 323.057451 340.013809 385.877731 385.877731 0 0 1 511.77418 291.011431a385.877731 385.877731 0 0 1 188.588785 49.002378 386.133619 386.133619 0 0 1 140.865843 134.596609c20.151108 24.757076 20.151108 49.45018 0 74.207256-79.516913 115.469049-189.356446 176.881951-329.454628 183.471044z" fill="#666666" p-id="1688"></path><path d="M511.646236 543.571989c0-21.238628 21.3026-63.843829 0-63.843829s0 42.6052 0 63.843829z m0 82.139756c-31.474112 0-58.342256-11.19506-80.604433-33.521209a109.903505 109.903505 0 0 1-33.265322-80.668405c0-31.474112 11.19506-58.342256 33.457237-80.604433a109.903505 109.903505 0 0 1 80.668405-33.265322c31.538084 0 58.406228 11.131088 80.604433 33.393265 22.262177 22.326149 33.393265 49.258265 33.393266 80.668405a110.159392 110.159392 0 0 1-33.585181 80.604433 110.159392 110.159392 0 0 1-80.668405 33.393266zM82.203728 941.028611v-163.319935c0-27.379919-13.689959-41.069878-41.13385-41.069878-27.379919 0-41.069878 13.689959-41.069878 41.069878v177.073866c0 18.871673 6.717036 35.056531 20.087137 48.426632 13.434072 13.434072 29.554959 20.087137 48.490603 20.087137h177.009894c27.379919 0 41.13385-13.689959 41.13385-41.069878 0-27.44389-13.753931-41.13385-41.13385-41.13385l-163.383906-0.063972z m0-858.821045h163.319935c27.379919 0 41.069878-13.689959 41.069878-41.13385C286.593541 13.693798 272.903581 0.003838 245.523663 0.003838H68.57774C49.642095 0.003838 33.457237 6.720874 20.087137 20.090975 6.653064 33.525047 0 49.645934 0 68.581578v177.009895c0 27.379919 13.689959 41.13385 41.069878 41.133849 27.44389 0 41.13385-13.753931 41.13385-41.133849V82.207566z m858.821045 0v163.319935c0 27.379919 13.689959 41.069878 41.069878 41.069878 27.44389 0 41.13385-13.689959 41.133849-41.069878V68.581578c0-18.935645-6.717036-35.120503-20.087136-48.490603A66.082841 66.082841 0 0 0 954.778704 0.003838h-177.073866c-27.379919 0-41.069878 13.689959-41.069878 41.069878 0 27.44389 13.689959 41.13385 41.069878 41.13385h163.319935z m0 858.821045h-163.319935c-27.379919 0-41.069878 13.689959-41.069878 41.069878 0 27.44389 13.689959 41.13385 41.069878 41.13385h177.073866c18.871673 0 35.056531-6.717036 48.426632-20.087137 13.434072-13.434072 20.087137-29.554959 20.087136-48.490603v-176.945923c0-27.379919-13.689959-41.069878-41.069878-41.069878-27.44389 0-41.13385 13.689959-41.133849 41.069878l-0.063972 163.319935z" fill="#666666" p-id="1689"></path></svg>