<?xml version="1.0" standalone="no"?><!DOCTYPE svg PUBLIC "-//W3C//DTD SVG 1.1//EN" "http://www.w3.org/Graphics/SVG/1.1/DTD/svg11.dtd"><svg t="1782593530601" class="icon" viewBox="0 0 1024 1024" version="1.1" xmlns="http://www.w3.org/2000/svg" p-id="1678" xmlns:xlink="http://www.w3.org/1999/xlink" width="200" height="200"><path d="M174.933333 153.6c-38.4 0-68.266667 29.866667-68.266666 68.266667v580.266666c0 38.4 29.866667 68.266667 68.266666 68.266667h669.866667c38.4 0 68.266667-29.866667 68.266667-68.266667V221.866667c0-38.4-29.866667-68.266667-68.266667-68.266667H174.933333z m0-68.266667h669.866667C921.6 85.333333 981.333333 145.066667 981.333333 221.866667v580.266666c0 76.8-59.733333 136.533333-132.266666 136.533334H174.933333C102.4 938.666667 42.666667 878.933333 42.666667 802.133333V221.866667C42.666667 145.066667 102.4 85.333333 174.933333 85.333333z" fill="#1F3858" fill-opacity=".6" p-id="1679"></path><path d="M247.466667 533.333333l115.2 110.933334-38.4 38.4-115.2-110.933334-38.4-38.4h-4.266667l38.4-34.133333h4.266667l115.2-110.933333 38.4 34.133333-115.2 110.933333z m529.066666 0l-115.2 110.933334 38.4 34.133333 115.2-110.933333 38.4-34.133334h4.266667l-38.4-34.133333h-4.266667l-115.2-110.933333-38.4 34.133333 115.2 110.933333zM571.733333 384l46.933334 25.6-166.4 273.066667-46.933334-25.6L571.733333 384z" fill="#1F3858" fill-opacity=".6" p-id="1680"></path></svg>