<?xml version="1.0" standalone="no"?><!DOCTYPE svg PUBLIC "-//W3C//DTD SVG 1.1//EN" "http://www.w3.org/Graphics/SVG/1.1/DTD/svg11.dtd"><svg t="1782592889538" class="icon" viewBox="0 0 1025 1024" version="1.1" xmlns="http://www.w3.org/2000/svg" p-id="1665" xmlns:xlink="http://www.w3.org/1999/xlink" width="200.1953125" height="200"><path d="M275.529143 321.316571a14.994286 14.994286 0 0 1-23.552-7.899428l-6.582857-26.185143a142.628571 142.628571 0 0 0-38.253715-66.486857 145.846857 145.846857 0 0 0-67.510857-37.668572l-26.477714-6.582857a14.628571 14.628571 0 0 1 0-28.525714l26.477714-6.436571c25.453714-6.290286 48.786286-19.309714 67.510857-37.668572 18.578286-18.285714 31.817143-41.325714 38.253715-66.56l6.582857-26.112A14.921143 14.921143 0 0 1 266.459429 0c6.802286 0 12.8 4.534857 14.628571 11.190857l6.656 26.038857c13.019429 51.273143 53.540571 91.428571 105.545143 104.301715l26.624 6.436571a14.628571 14.628571 0 0 1 0 28.525714l-26.624 6.656a145.846857 145.846857 0 0 0-67.437714 37.595429c-18.578286 18.285714-31.817143 41.252571-38.253715 66.56l-6.729143 26.112a14.628571 14.628571 0 0 1-5.339428 7.899428z m646.290286-82.139428a15.213714 15.213714 0 0 1-23.771429-8.045714l-1.316571-5.266286a106.934857 106.934857 0 0 0-28.672-49.883429 109.275429 109.275429 0 0 0-50.541715-28.233143L812.105143 146.285714a14.994286 14.994286 0 0 1-8.192-5.193143 14.628571 14.628571 0 0 1 8.192-23.405714l5.412571-1.243428c38.985143-9.581714 69.412571-39.643429 79.140572-78.043429l1.462857-5.412571a15.140571 15.140571 0 0 1 23.771428-8.045715 14.628571 14.628571 0 0 1 5.12 8.045715l1.389715 5.339428c9.654857 38.546286 40.228571 68.534857 79.213714 78.116572l5.485714 1.316571a15.067429 15.067429 0 0 1 9.142857 6.729143 14.774857 14.774857 0 0 1-9.142857 21.869714l-5.412571 1.316572a108.251429 108.251429 0 0 0-79.286857 78.043428l-1.389715 5.339429a14.774857 14.774857 0 0 1-5.193142 8.045714zM207.140571 1024c14.848 0 29.476571-3.949714 42.203429-11.117714l12.068571-8.338286 6.290286-5.558857L757.394286 509.074286A171.373714 171.373714 0 0 0 515.291429 266.898286L25.453714 756.589714l-5.705143 6.290286-8.338285 12.068571c-7.241143 12.873143-11.044571 27.428571-11.044572 42.203429v164.059429l0.804572 8.557714 1.682285 6.070857c5.12 13.970286 17.115429 24.283429 31.670858 27.282286l8.557714 0.804571h164.059428z m356.205715-660.48l24.210285-24.210286A68.973714 68.973714 0 0 1 685.056 436.662857l-24.283429 24.210286L563.346286 363.52zM102.765714 824.027429l388.022857-387.949715 97.426286 97.353143L200.192 921.6H102.765714v-97.426286z m746.422857 158.866285c3.364571 0 6.582857-1.097143 9.216-3.072a14.774857 14.774857 0 0 0 5.339429-7.972571l6.582857-26.112a142.628571 142.628571 0 0 1 38.326857-66.56c18.651429-18.358857 41.984-31.378286 67.437715-37.668572l26.550857-6.436571a14.701714 14.701714 0 0 0 11.337143-14.336 14.628571 14.628571 0 0 0-3.145143-8.996571 15.067429 15.067429 0 0 0-8.192-5.266286l-26.550857-6.582857a144.091429 144.091429 0 0 1-105.618286-104.082286l-6.656-26.331429a14.701714 14.701714 0 0 0-5.266286-8.045714 15.213714 15.213714 0 0 0-9.216-3.218286 14.701714 14.701714 0 0 0-14.628571 11.264l-6.582857 26.258286a142.628571 142.628571 0 0 1-38.180572 66.486857 145.700571 145.700571 0 0 1-67.510857 37.595429l-26.550857 6.582857a14.921143 14.921143 0 0 0-8.045714 5.193143 14.482286 14.482286 0 0 0 0 18.139428c1.974857 2.56 4.827429 4.388571 8.045714 5.193143l26.550857 6.582857c25.526857 6.217143 48.859429 19.236571 67.584 37.595429 18.578286 18.285714 31.817143 41.325714 38.180571 66.56l6.582858 26.185143a14.774857 14.774857 0 0 0 14.409142 10.971428z" fill="#767676" p-id="1666"></path></svg>