<svg viewBox="0 0 1064 1024" xmlns="http://www.w3.org/2000/svg">
  <path d="M837.088395 1024l-81.287901-146.267654L609.53284 796.444444l146.267654-81.287901L837.088395 568.888889l81.287901 146.267654 146.267655 81.287901-146.267655 81.287902-81.287901 146.267654z m-56.888889-227.555556l32.489877 16.244939 16.244938 32.553086 16.244938-32.553086 32.553087-16.244939-32.553087-16.244938-16.244938-32.489876-16.244938 32.489876-32.489877 16.244938z m-414.46716 81.287902l-130.022716-235.70963L0 512l235.70963-130.022716 130.022716-235.70963 130.022716 235.70963 227.555555 130.022716-235.709629 130.022716-121.868642 235.70963zM170.666667 512L292.598519 577.106173l64.979753 121.868642L422.621235 577.106173 552.643951 512 430.712099 446.957037 365.732346 325.088395 300.689383 446.893827 170.666667 512.06321z m617.623703-154.421728l-64.979753-113.777778-113.777777-64.979753 113.777777-65.042963L788.22716 0 853.333333 113.777778l113.777778 65.042963-113.777778 64.979753-65.042963 113.777778z" fill="currentColor"/>
</svg>