<?xml version="1.0" standalone="no"?><!DOCTYPE svg PUBLIC "-//W3C//DTD SVG 1.1//EN" "http://www.w3.org/Graphics/SVG/1.1/DTD/svg11.dtd"><svg t="1781111130039" class="icon" viewBox="0 0 1024 1024" version="1.1" xmlns="http://www.w3.org/2000/svg" p-id="12915" xmlns:xlink="http://www.w3.org/1999/xlink" width="200" height="200"><path d="M864 0A160 160 0 0 1 1024 160v704a160 160 0 0 1-160 160h-704A160 160 0 0 1 0 864v-704A160 160 0 0 1 160 0z m0 64h-704A96 96 0 0 0 64 160v704A96 96 0 0 0 160 960h704a96 96 0 0 0 96-96v-704A96 96 0 0 0 864 64zM604.288 282.176a32 32 0 0 1 20.608 35.456l-1.472 5.568-154.688 424.96a32 32 0 0 1-61.568-16.32l1.472-5.568L563.2 301.312a32 32 0 0 1 41.024-19.136z m-294.72 75.52a32 32 0 0 1 40.832 3.648l3.712 4.48a32 32 0 0 1-3.712 40.832L237.248 519.68l113.152 113.152 3.712 4.48a32 32 0 0 1-48.96 40.768L169.344 542.4l-3.648-4.48a32 32 0 0 1 3.648-40.768l135.808-135.808z m420.416 0l4.416 3.648 135.744 135.808a32 32 0 0 1 3.712 40.832l-3.712 4.416-135.744 135.744a32 32 0 0 1-48.96-40.832l3.712-4.416 113.152-113.152-113.152-113.088a32 32 0 0 1-3.712-40.832l3.712-4.48a32 32 0 0 1 40.832-3.648z" p-id="12916"></svg>