<?xml version="1.0" standalone="no"?><!DOCTYPE svg PUBLIC "-//W3C//DTD SVG 1.1//EN" "http://www.w3.org/Graphics/SVG/1.1/DTD/svg11.dtd"><svg t="1781111104230" class="icon" viewBox="0 0 1024 1024" version="1.1" xmlns="http://www.w3.org/2000/svg" p-id="8456" xmlns:xlink="http://www.w3.org/1999/xlink" width="200" height="200"><path d="M829.44 194.56c-19.968-19.456-46.08-30.72-73.728-30.72H268.288C210.432 163.84 163.84 210.432 163.84 268.288v487.936c0 57.344 47.104 103.936 104.96 103.936h419.84c12.8 0 23.04-10.752 23.04-23.04 0-12.8-10.24-23.04-23.04-23.04h-419.84c-32.256 0-58.368-26.112-58.368-57.856V268.288c0-31.744 26.112-57.856 57.856-57.856h487.936c31.744 0 57.856 26.112 57.856 57.856v400.896c0 12.8 10.24 23.04 23.04 23.04s23.04-10.24 23.04-23.04V268.288c0-27.648-10.752-54.272-30.72-73.728z" fill="" p-id="8457"></path><path d="M657.92 626.688c25.6-32.768 39.936-72.704 39.936-114.688 0-49.664-19.456-96.256-54.272-131.072-35.328-34.816-81.408-54.272-131.072-54.272-49.664 0-96.256 19.456-131.072 54.272-34.816 35.328-54.272 81.408-54.272 131.072 0 49.664 19.456 96.256 54.272 131.072 35.328 34.816 81.408 54.272 131.072 54.272 41.472 0 80.384-13.312 112.64-38.4l94.208 92.672c4.608 4.608 10.24 6.656 16.384 6.656 6.144 0 11.776-2.048 16.384-7.168 9.216-9.216 8.704-23.552-0.512-32.768l-93.696-91.648zM372.736 512c0-76.8 62.464-139.264 139.264-139.264S651.264 435.2 651.264 512 588.8 651.264 512 651.264 372.736 588.8 372.736 512z" fill="" p-id="8458"></path></svg>